<?xml version="1.0" encoding="UTF-8"?>
<svg width="40px" height="41px" viewBox="0 0 40 41" version="1.1" xmlns="http://www.w3.org/2000/svg" xmlns:xlink="http://www.w3.org/1999/xlink">
    <title>59406174-B92A-4C8E-9B8C-D93C2CC386A6</title>
    <g id="A-Campaign-" stroke="none" stroke-width="1" fill="none" fill-rule="evenodd">
        <g id="A-Campaign" transform="translate(-767.000000, -297.000000)">
            <g id="Group-7" transform="translate(749.000000, 285.000000)">
                <g id="Group-40" transform="translate(18.000000, 12.000000)">
                    <g id="Group-39" transform="translate(0.000000, 0.615385)">
                        <g id="Group-11" transform="translate(0.298507, 0.000000)">
                            <path d="M38.863172,19.8186773 C38.863172,30.6572068 30.2062313,39.4434244 19.5271755,39.4434244 C8.84811971,39.4434244 0.191179002,30.6572068 0.191179002,19.8186773 C0.191179002,8.98014782 8.84811971,0.193930261 19.5271755,0.193930261 C30.2062313,0.193930261 38.863172,8.98014782 38.863172,19.8186773 Z" id="Stroke-1" fill="#00A0E6" fill-rule="nonzero"></path>
                            <path d="M25.3957528,9.07672416 C25.3809407,8.78538813 19.9229155,11.9465395 17.2730714,15.6431893 C15.2361441,18.4839747 14.5690862,21.4667994 14.5619355,21.8374494 C14.5440588,22.6902034 13.9791537,27.9145529 13.716621,28.8658013 C13.4540882,29.8170497 21.2136164,31.9777055 21.7453218,32.1021195 C22.2249293,32.2151288 21.7560479,26.8731044 21.5124134,24.8793707 C21.4725738,24.5543392 21.5992433,24.237602 21.8490069,24.029727 C23.3148999,22.8073599 25.7813797,20.4523073 26.8984208,19.8188329 L25.3957528,9.07672416 Z" id="Fill-5" fill="#FFE1CD" fill-rule="nonzero"></path>
                            <path d="M25.9559078,38.3309044 C23.9434973,39.0514686 21.7778575,39.4454461 19.5253878,39.4454461 C15.6946571,39.4454461 12.124416,38.3101687 9.11601548,36.3558328 C10.4113132,33.2470389 13.8763369,25.6614161 13.9682744,25.6458644 C14.2849482,25.5836574 19.5299847,27.045003 23.1518129,28.678973 C23.6738138,28.9138044 22.4331678,30.5104502 22.9929653,31.0143268 C24.6943205,32.5446185 25.8486474,35.9152 25.9559078,38.3309044" id="Fill-7" fill="#055275"></path>
                            <path d="M25.5892814,6.57538148 C25.5892814,6.57538148 26.2992435,9.8075525 24.3940934,10.2652922 C22.4889433,10.7225135 23.2428311,11.5571238 23.375119,12.2927214 C23.5074069,13.0278005 22.7417715,16.4382982 22.7417715,16.4382982 C22.7417715,16.4382982 22.4434853,19.7471911 23.0109442,20.1188779 C23.5784031,20.4905646 25.5938782,19.709867 26.8983697,19.8187292 C26.8983697,20.8327029 26.7538235,24.4293032 25.2629031,24.3489525 C23.7719827,24.2686018 20.51484,22.4345327 20.51484,22.4345327 L19.5934216,16.0971966 C19.5571573,15.8483687 19.3257812,15.6788546 19.081636,15.7223995 L18.0534678,15.9064285 C17.7562031,15.9598228 17.5427037,16.2262761 17.5518975,16.5321271 L17.6218722,18.8363773 C17.6295336,19.0903891 17.5217624,19.3335147 17.3297151,19.4962897 L15.0021631,21.4646222 C14.7932606,21.6413937 14.474033,21.5444545 14.3974184,21.2795564 C13.8754175,19.4791827 12.6102548,13.9417247 12.7726778,12.6504115 C13.1276589,9.82621459 15.9148986,8.23734464 15.9148986,8.23734464 L25.5892814,6.57538148 Z" id="Fill-9" fill="#055275"></path>
                        </g>
                    </g>
                </g>
            </g>
        </g>
    </g>
</svg>