<?xml version="1.0" encoding="UTF-8"?>
<svg width="40px" height="39px" viewBox="0 0 40 39" version="1.1" xmlns="http://www.w3.org/2000/svg" xmlns:xlink="http://www.w3.org/1999/xlink">
    <title>98F0BD94-2457-4E2F-A559-5C6ABEAC7505</title>
    <defs>
        <ellipse id="path-1" cx="19.7354813" cy="19.4999988" rx="19.6226403" ry="19.4999988"></ellipse>
        <polygon id="path-3" points="0.116499394 0.00706457988 9.43281007 0.00706457988 9.43281007 7.91997823 0.116499394 7.91997823"></polygon>
    </defs>
    <g id="A-Campaign-" stroke="none" stroke-width="1" fill="none" fill-rule="evenodd" opacity="0.5">
        <g id="A-Campaign" transform="translate(-1154.000000, -309.000000)">
            <g id="My-Family" transform="translate(1154.000000, 309.000000)">
                <mask id="mask-2" fill="white">
                    <use xlink:href="#path-1"></use>
                </mask>
                <use id="Mask" fill="#26A4DA" fill-rule="nonzero" xlink:href="#path-1"></use>
                <g id="Group-60" mask="url(#mask-2)">
                    <g transform="translate(-3.773585, 5.193492)">
                        <path d="M31.256535,9.83644171 C31.7638701,11.3924155 31.8084452,13.674275 31.0113719,14.5561701 C30.2142986,15.4374765 29.2324732,15.6965111 29.2324732,15.6965111 C29.2324732,15.6965111 29.8313046,18.1861869 33.7580197,18.289212 C37.6841483,18.3934146 39.0794664,15.4374765 39.0794664,15.4374765 C39.0794664,15.4374765 37.3955831,15.281467 36.930477,14.5037744 C36.465371,13.7254932 35.9803234,10.9161451 36.3773938,9.67631123" id="Fill-1" fill="#F8D1BF"></path>
                        <path d="M38.9121338,6.50072351 C38.9174125,6.58490976 38.9174125,6.66791857 38.9121338,6.75740326 C38.9068552,6.93460648 38.8652127,7.10709998 38.8077342,7.27429505 C38.7813411,7.3584813 38.7449772,7.4367804 38.7086133,7.52037793 C38.375473,7.97545465 38.3179946,8.86971277 37.791891,8.80672026 C37.6147636,9.51317829 37.2499515,10.1672407 36.7754612,10.72652 C36.6816189,10.836021 36.5725272,10.9561188 36.4687141,11.071507 C36.462849,11.0762167 36.462849,11.0762167 36.4575703,11.0815151 C36.3695931,11.1757095 36.2810294,11.2704926 36.1871871,11.364687 C35.619441,11.9133695 34.9261808,12.4208418 34.2282284,12.5462381 C34.1760286,12.5562463 34.0563796,12.5621334 33.9367307,12.5621334 C33.8581377,12.5621334 33.7801313,12.5562463 33.7226528,12.5562463 C33.6915676,12.5515365 33.6604823,12.5515365 33.6393678,12.5462381 C32.9308582,12.4208418 32.2223485,11.8921757 31.6546024,11.3328964 C31.5707308,11.2487102 31.4933109,11.1657014 31.414718,11.0815151 L31.4094393,11.0815151 L31.4041607,11.0762167 C31.295069,10.9561188 31.1906694,10.8413194 31.0915484,10.72652 C30.6170581,10.1672407 30.2528326,9.51317829 30.0757052,8.80672026 C29.5548802,8.86971277 29.4974018,7.97545465 29.1583964,7.52037793 C29.122619,7.4367804 29.0909472,7.3584813 29.0598619,7.27429505 C29.0023835,7.10709998 28.960741,6.93460648 28.9554623,6.75740326 C28.9507702,6.66791857 28.9507702,6.58490976 28.960741,6.50072351 C28.9924128,6.1557365 29.3771663,5.58527164 29.7888996,5.75246671 C29.7994568,5.75776514 29.8047354,5.75776514 29.8152927,5.76895073 C29.7994568,5.3132853 29.8047354,4.89529763 29.8410993,4.62860973 C29.8516566,4.38252685 29.8727711,4.14762955 29.9138272,3.91685326 C30.2481405,1.9670291 31.3777675,1.44366144 33.7226528,1.29177296 C33.7906885,1.28706324 33.8634163,1.28176481 33.9367307,1.27646637 C36.4217929,1.41187083 37.6147636,1.90344787 37.9584611,3.91685326 C37.9954116,4.14762955 38.0206317,4.38252685 38.0259103,4.62860973 C38.0628607,4.89529763 38.0681394,5.3132853 38.0523035,5.76895073 C38.0628607,5.75776514 38.0681394,5.75776514 38.0781101,5.75246671 C38.4898433,5.58527164 38.8757699,6.1557365 38.9121338,6.50072351" id="Fill-3" fill="#F8D1BF"></path>
                        <path d="M31.6546024,11.3328964 C31.5707308,11.2487102 31.4874458,11.1657014 31.4094393,11.0815151 L31.414718,11.0815151 C31.4933109,11.1657014 31.5707308,11.2487102 31.6546024,11.3328964" id="Fill-5" fill="#FFF8D1"></path>
                        <path d="M36.7791563,1.91116004 C37.25306,1.69098062 37.8407477,2.10366985 38.1627442,3.07387222 C38.4847407,4.04348586 38.4043882,5.52528158 38.0014527,5.9020592 C37.5991036,6.27942553 37.7293099,6.70977621 37.5703644,6.81809978 C37.411419,6.92583463 37.088836,6.60263008 37.1967546,6.03687494 C37.3040868,5.4711198 36.8982187,3.07387222 36.7791563,2.77715984 C36.6600938,2.48103619 36.5791548,2.00417701 36.7791563,1.91116004" id="Fill-7" fill="#212121"></path>
                        <path d="M31.1253317,1.72318333 C30.6514279,1.5024152 30.0637403,1.91569315 29.7417438,2.88530679 C29.4197473,3.85492044 29.5000998,5.33671616 29.9030353,5.71349378 C30.3053843,6.09086011 30.1751781,6.5217995 30.3341235,6.63012307 C30.493069,6.73785792 30.815652,6.41465337 30.7077333,5.84889823 C30.6004011,5.28314309 31.0062692,2.88530679 31.1253317,2.58918314 C31.2443941,2.29305948 31.3253331,1.81620031 31.1253317,1.72318333" id="Fill-9" fill="#212121"></path>
                        <path d="M33.8397211,8.53367423 C34.6121608,8.3717776 35.2356258,8.62669121 35.60513,9.06646133 C35.9746342,9.50682017 36.2696511,9.67578138 36.2696511,9.67578138 C36.2696511,9.67578138 34.3828336,9.92421912 33.8397211,9.32196365" id="Fill-11" fill="#212121"></path>
                        <path d="M33.8397211,8.53367423 C33.0672814,8.3717776 32.4432299,8.62669121 32.0737257,9.06646133 C31.7042216,9.50682017 31.4092047,9.67578138 31.4092047,9.67578138 C31.4092047,9.67578138 33.2960221,9.92421912 33.8397211,9.32196365" id="Fill-13" fill="#212121"></path>
                        <path d="M23.6816405,24.6186639 C23.4347179,26.3671475 24.8992448,36.4112146 24.7719711,37.2548432 C24.6458705,38.0978831 27.8042515,38.7325179 27.8042515,38.7325179 C27.8042515,38.7325179 29.2394527,34.1876379 29.2324403,32.0211666 C29.2253763,29.8546953 28.2781553,24.8341336 27.8042515,23.6720101 C27.3303477,22.509298 25.6253499,22.3503449 24.9514446,22.773631 C24.2769528,23.1963284 23.6816405,24.6186639 23.6816405,24.6186639" id="Fill-15" fill="#F8D1BF"></path>
                        <path d="M34.1106322,16.9159165 C34.0508077,16.9200375 33.9921563,16.9265134 33.9323318,16.9265134 C32.5481574,16.9265134 31.0009319,16.2259425 30.3141234,15.2321915 L30.3088447,15.2321915 C28.9727645,15.574235 25.5058768,16.7416569 24.6894485,17.3603964 C24.304695,17.6471006 23.4718443,22.7907037 23.6888547,24.7693749 C23.8049846,25.8219974 25.7170221,25.3357188 26.9668847,25.3357188 C27.4378559,25.3357188 27.4724602,27.8071445 27.5123432,28.7237738 C27.6413764,31.6555746 27.3621955,33.9038773 27.5709947,36.8715897 L34.1106322,36.8715897 L34.1106322,16.9159165 Z" id="Fill-17" fill="#118BC2"></path>
                        <path d="M44.2766894,24.6186639 C44.5241986,26.3671475 43.0596717,36.4112146 43.1869454,37.2548432 C43.313046,38.0978831 40.154665,38.7325179 40.154665,38.7325179 C40.154665,38.7325179 38.7194638,34.1876379 38.7264762,32.0211666 C38.7335402,29.8546953 39.6807612,24.8341336 40.154665,23.6720101 C40.6285688,22.509298 42.3335666,22.3503449 43.0074719,22.773631 C43.6819637,23.1963284 44.2766894,24.6186639 44.2766894,24.6186639" id="Fill-19" fill="#F8D1BF"></path>
                        <path d="M33.8482843,16.9159165 C33.9075222,16.9200375 33.9667602,16.9265134 34.0265847,16.9265134 C35.4107591,16.9265134 36.9579846,16.2259425 37.6447931,15.2321915 L37.6500718,15.2321915 C38.986152,15.574235 42.4530397,16.7416569 43.269468,17.3603964 C43.6542215,17.6471006 44.4870722,22.7907037 44.2694753,24.7693749 C44.1533454,25.8219974 42.2418944,25.3357188 40.9914453,25.3357188 C40.5210606,25.3357188 40.4864563,27.8071445 40.4465733,28.7237738 C40.3175401,31.6555746 40.596721,33.9038773 40.3879218,36.8715897 L33.8482843,36.8715897 L33.8482843,16.9159165 Z" id="Fill-21" fill="#118BC2"></path>
                        <path d="M18.3681117,10.2998193 C18.8396694,11.7439373 18.881312,13.8627226 18.140544,14.6810365 C17.4009492,15.4993504 16.4895055,15.7401349 16.4895055,15.7401349 C16.4895055,15.7401349 17.0449348,18.05143 20.6907094,18.1473906 C24.3364841,18.2439399 25.6315083,15.4993504 25.6315083,15.4993504 C25.6315083,15.4993504 24.0678604,15.3551152 23.6361857,14.6327619 C23.2045109,13.9109973 22.7540677,11.3018123 23.1229854,10.1508744" id="Fill-23" fill="#F8D1BF"></path>
                        <path d="M25.475554,7.2027073 C25.4808327,7.28041769 25.4808327,7.35812807 25.475554,7.44054817 C25.4708619,7.6059771 25.4327385,7.76610758 25.3793656,7.92152835 C25.354732,7.99923873 25.3207142,8.0722394 25.2872828,8.14936106 C24.9776032,8.57205845 24.9248168,9.40214664 24.4362502,9.34386385 C24.2714396,9.99910367 23.9324342,10.6060689 23.4925482,11.1259042 C23.4057441,11.2277519 23.3042771,11.3390191 23.2075021,11.4461652 L23.1975314,11.4561734 C23.1154194,11.5433032 23.0333073,11.630433 22.9465032,11.7181515 C22.41864,12.2279788 21.7752335,12.6989508 21.1271349,12.8155164 C21.0790407,12.8249358 20.9670165,12.8302342 20.8561652,12.8302342 C20.7840239,12.8302342 20.7112961,12.8249358 20.6579233,12.8249358 C20.6285975,12.8202261 20.5998583,12.8202261 20.5805033,12.8155164 C19.922434,12.6989508 19.2649511,12.2085512 18.7376745,11.6887158 C18.6602546,11.6110054 18.5875268,11.533295 18.5153855,11.4561734 L18.5101069,11.4561734 L18.5054148,11.4514636 C18.4039477,11.3390191 18.3071728,11.2330504 18.21509,11.1259042 C17.7752041,10.6060689 17.4367852,9.99910367 17.2719746,9.34386385 C16.7881001,9.40214664 16.7353138,8.57205845 16.4209419,8.14936106 C16.3869241,8.0722394 16.3575984,7.99923873 16.3288592,7.92152835 C16.2754863,7.76610758 16.2367764,7.6059771 16.2320843,7.44054817 C16.2268056,7.35812807 16.2268056,7.28041769 16.2367764,7.2027073 C16.2661021,6.88185761 16.623876,6.35319152 17.0062835,6.50802357 C17.0156677,6.51332201 17.0203598,6.51332201 17.0303306,6.52333016 C17.0156677,6.10063278 17.0203598,5.71208086 17.0543777,5.46482055 C17.0637619,5.23639912 17.0831169,5.01798584 17.1224134,4.80428229 C17.4315066,2.99339487 18.4813677,2.50711626 20.6579233,2.36641337 C20.7212668,2.36170365 20.788716,2.35699393 20.8561652,2.35228421 C23.1641001,2.47885794 24.2714396,2.93511208 24.5905035,4.80428229 C24.6245214,5.01798584 24.6485685,5.23639912 24.6538471,5.46482055 C24.6872784,5.71208086 24.6919706,6.10063278 24.6778942,6.52333016 C24.6872784,6.51332201 24.6919706,6.51332201 24.7019413,6.50802357 C25.0843488,6.35319152 25.4415362,6.88185761 25.475554,7.2027073" id="Fill-25" fill="#F8D1BF"></path>
                        <path d="M18.7375572,11.6887747 C18.6601373,11.6110643 18.5827174,11.5333539 18.5099896,11.4556435 L18.5152682,11.4556435 C18.5874095,11.5333539 18.6601373,11.6110643 18.7375572,11.6887747" id="Fill-27" fill="#FFF8D1"></path>
                        <g id="Group-31" stroke-width="1" fill="none" transform="translate(16.285662, 0.074134)">
                            <mask id="mask-4" fill="white">
                                <use xlink:href="#path-3"></use>
                            </mask>
                            <g id="Clip-30"></g>
                            <path d="M8.48196885,7.60920057 C8.36642548,7.62332974 8.24970907,7.64334605 8.13357919,7.66277364 C8.10953209,6.85211305 8.33827278,5.94019348 8.14941508,5.14425076 C7.98460448,4.47900278 7.42741563,3.23445922 6.70248361,2.99190863 C6.0584906,2.77820508 5.26083078,3.12319208 4.54000436,3.19089431 C4.38985663,3.20561218 4.24029541,3.2103219 4.09483979,3.19089431 C3.71243229,3.14203096 3.33588993,3.05019142 2.9528959,3.03547354 C2.5663828,3.02075567 2.15992819,3.08904661 1.86021924,3.3315972 C1.45376464,3.65715661 1.34232687,4.55965674 1.24555196,5.06006451 C1.14408494,5.5846096 1.27956981,7.48792528 1.14877706,7.89119507 C1.05200215,7.87588848 0.853760224,7.99245406 0.815636776,7.84233172 C0.564022021,6.84681462 0.37047221,5.6040372 0.297744402,5.25963891 C0.0220825497,3.95328027 -0.0406745103,2.84119758 0.853760224,1.78739769 C1.65669868,0.846042363 2.84204465,0.437474135 4.04205348,0.321497275 C4.20627756,0.302069679 4.37519376,0.292061524 4.54000436,0.282642083 C5.73942667,0.21435114 6.95409837,0.296771244 8.11950284,0.0106557415 C8.54472591,-0.0964903931 9.35352951,2.1600543 9.42801687,3.57532522 C9.50250422,4.99648329 8.68724895,5.69234445 8.48196885,7.60920057" id="Fill-29" fill="#212121" mask="url(#mask-4)"></path>
                        </g>
                        <path d="M31.076651,33.5856768 L31.076651,38.7852079 L11.1762113,38.7852079 L11.1762113,33.5856768 C11.1762113,33.5856768 10.783833,26.7718891 10.6536268,24.0196464 C10.5181419,21.2674036 10.9199044,18.248473 11.7234294,17.6491611 C12.4817927,17.0739865 16.2483894,15.626925 17.4882812,15.3090188 L17.4935598,15.3090188 C18.1311012,16.2315353 19.5674754,16.8820654 20.8525288,16.8820654 C20.9434386,16.8820654 21.0337618,16.876767 21.1240851,16.8667588 C21.2191004,16.876767 21.3100102,16.8820654 21.4003334,16.8820654 C22.6853869,16.8820654 24.1223476,16.2315353 24.7593024,15.3090188 L24.7645811,15.3090188 C26.0050594,15.626925 29.2238514,16.7107493 29.9822148,17.2853352 C30.7857397,17.8846471 31.1869157,20.9041664 31.0514308,23.6564092 C30.9165325,26.4086519 31.076651,33.5856768 31.076651,33.5856768" id="Fill-34" fill="#055275"></path>
                        <path d="M15.6205255,12.7397487 C16.3126127,11.8790474 16.162465,10.1158459 15.8082102,8.73118812 C15.4551284,7.3471191 13.64925,6.03251845 11.5272402,6.7124843 C9.40464398,7.39245016 7.0116645,6.30450479 6.15359367,9.8391498 C5.29610935,13.3743835 7.60756331,16.8260197 7.60756331,16.8260197 C7.60756331,16.8260197 11.6621386,16.9543596 12.0234316,16.5922999 C12.384138,16.2296514 15.6058626,12.9681702 15.6058626,12.9681702 L15.6205255,12.7397487 Z" id="Fill-36" fill="#638EA2"></path>
                        <path d="M9.85274112,6.99630382 C10.0228304,5.84124494 7.08321928,4.41655457 5.66385399,5.70584048 C4.24448871,6.99394896 4.6503568,8.99558004 5.05563837,9.4365276 C5.46150646,9.87747515 7.82691976,10.0264201 7.82691976,10.0264201 L9.85274112,6.99630382 Z" id="Fill-38" fill="#638EA2"></path>
                        <path d="M15.1210497,10.0227111 C14.3181112,9.94912177 14.2852664,10.6214343 13.0031455,10.8910658 C11.7198516,11.1606973 11.0635418,10.2175758 10.0195459,11.3479087 C8.9749634,12.4782415 8.76616421,11.729396 7.93038094,11.8789296 C7.09518417,12.029052 7.30456988,13.0940374 7.48345683,13.7598741 C7.66234377,14.4251221 8.19900461,14.3950976 7.87114296,15.4730349 C7.5426948,16.5509721 6.61776131,19.6052256 5.99195025,20.174513 C5.36496616,20.7438005 4.46994492,20.7738249 4.11158451,20.7738249 C3.75381061,20.7738249 7.00603396,25.4452787 9.18376259,25.0555493 C11.3620777,24.6664087 11.6899394,23.2293553 11.4811402,22.3303875 C11.272341,21.4325971 10.9438928,20.7738249 10.9743916,20.6537271 C11.0037173,20.5336292 11.152692,18.7674841 11.152692,18.7674841 C11.152692,18.7674841 13.0031455,19.0276962 13.6893676,18.2829717 C14.3755897,17.5394246 15.597886,14.1254662 15.597886,12.9568668 C15.597886,11.7894449 15.7773595,10.0827601 15.1210497,10.0227111" id="Fill-40" fill="#F8D1BF"></path>
                        <path d="M18.0525082,26.6377798 C18.3481116,27.7545722 18.5498726,34.7173048 18.7111641,35.8093712 C18.8718691,36.902615 16.775666,37.5095802 16.775666,37.5095802 C16.775666,37.5095802 14.7996983,31.1549902 14.7996983,30.9524722 C14.7996983,30.7499543 16.2829937,26.7749504 16.4894468,26.6377798 C16.6953135,26.5006092 17.864237,26.6377798 17.864237,26.6377798" id="Fill-42" fill="#F8D1BF"></path>
                        <path d="M16.4120856,28.4275324 C16.4120856,28.1979335 16.4760157,28.0113108 16.5774827,27.8617772 C16.5704445,27.7534537 16.5663389,27.6892837 16.5663389,27.6892837 L18.2642986,26.8856877 C18.2642986,26.8856877 17.1839388,23.5347218 15.9006449,22.4479539 C15.6507897,22.247202 15.4455095,22.080007 15.2953618,21.9793367 C14.3786395,21.3494116 11.6718747,20.1054568 11.0325739,21.4047508 C11.0548614,21.4606788 11.077149,21.5277923 11.1047151,21.6002042 C11.1217241,21.6449466 11.138733,21.6896889 11.1551554,21.7338425 C11.1662992,21.7673993 11.177443,21.7950689 11.1827216,21.8233272 C11.904721,24.0368957 8.47361074,24.6656434 5.13751581,21.3711941 C3.22195919,19.4796527 0.000234605832,23.0613949 0.000234605832,24.7951607 C0.000234605832,26.5295151 2.42781845,28.7207125 3.39439448,30.3879534 C3.79967605,31.0961776 4.08882774,32.88646 4.28296407,34.8103807 C7.69413286,37.4813807 11.9440175,39.1144762 16.571031,39.2434048 C16.6660464,39.2487033 16.7546101,39.2545904 16.8490389,39.2545904 C16.8760186,39.2557678 16.9018253,39.2551791 16.9282184,39.2557678 C16.6414128,35.6392914 16.4120856,32.111711 16.4120856,28.4275324" id="Fill-44" fill="#638EA2"></path>
                        <path d="M25.6726229,17.7564838 C24.7406513,17.3938354 22.618055,18.1797699 22.4104288,23.0166526 C22.2039757,27.8529465 22.4104288,28.5570497 22.4104288,28.5570497 L31.6779457,28.5570497 C31.6779457,28.5570497 32.1606472,20.7795355 30.9618114,18.9050668 C29.7623891,17.0311869 27.1219005,16.3665276 25.6726229,17.7564838" id="Fill-46" fill="#212121"></path>
                        <path d="M23.700585,20.6759216 C23.5510237,22.9265792 23.6524908,26.0079136 24.8929691,27.2601105 C26.2566155,28.6359375 29.0718855,28.1726188 29.9393405,26.9145348 C30.8977054,25.5222237 31.3768878,20.6382439 30.501808,19.7027757 C29.6267283,18.7667188 23.9029325,17.6310875 23.700585,20.6759216" id="Fill-48" fill="#F8D1BF"></path>
                        <path d="M25.4835893,19.4737655 C26.0982566,20.4704601 28.0097076,21.3476455 28.9997442,21.7061729 C29.3751135,21.8256821 28.1463655,20.311507 28.1803833,20.1513765 C29.6138249,21.2275476 30.2636831,22.6404637 30.9616355,22.4979946 C31.6584148,22.3555256 30.8431595,19.9123582 30.3311323,18.9556963 C29.8191051,17.9990344 27.8237825,18.2780853 27.0460641,18.2780853 C26.2689323,18.2780853 25.2102735,18.4376271 25.2102735,18.4376271 L25.4835893,19.4737655 Z" id="Fill-50" fill="#212121"></path>
                        <path d="M26.2883459,19.7968524 C26.2836538,20.4809392 24.3645781,22.4072148 23.5639857,22.5072963 C22.7645663,22.6079666 23.3645708,19.9187164 24.2842256,19.196363 C25.2038805,18.4740097 26.4033028,18.6341402 26.6431873,18.9961999 C26.8836582,19.3570822 26.2883459,19.7968524 26.2883459,19.7968524" id="Fill-52" fill="#212121"></path>
                        <path d="M25.3850548,27.2506322 C25.9093989,28.4928209 25.5299239,29.9981652 24.9457554,30.5238877 C24.9457554,30.5238877 26.1944449,31.4316863 27.8372723,31.4316863 C29.4789266,31.4316863 30.2173485,30.5238877 30.2173485,30.5238877 C30.2173485,30.5238877 28.9082479,28.445135 29.4314189,27.2506322 C29.9551764,26.0561294 25.3850548,27.2506322 25.3850548,27.2506322" id="Fill-54" fill="#F8D1BF"></path>
                        <path d="M25.2000681,30.2109268 C25.9296923,31.0421924 28.3508245,31.3924779 30.0376404,30.2109268 C30.3455605,30.2109268 32.6880998,30.8202468 33.7103947,31.6150121 C34.7332761,32.4091887 35.2030743,37.845972 35.2030743,37.845972 L28.2206182,37.845972 L20.4803853,37.845972 C20.4803853,37.845972 20.5167492,32.6046421 21.7126524,31.431333 C22.9079692,30.2586127 25.2000681,30.2109268 25.2000681,30.2109268" id="Fill-56" fill="#118BC2"></path>
                        <path d="M5.68526178,25.4522844 C6.23599897,26.4548661 7.69642027,33.3139848 7.79906032,33.6595605 C9.48704928,34.0051363 9.31520051,39.6597441 10.4190209,40.531631 C11.5228414,41.4041067 9.62957232,41.8668367 8.43425561,41.8668367 C7.23835238,41.8668367 7.92516096,41.9987089 6.30403466,41.0108451 C4.68173533,40.0223925 1.75150849,27.9660975 1.75150849,27.9660975 C1.75150849,27.9660975 5.09053599,25.7713679 5.68526178,25.4522844" id="Fill-58" fill="#F8D1BF"></path>
                    </g>
                </g>
            </g>
        </g>
    </g>
</svg>